<?xml version="1.0" encoding="UTF-8"?>
<svg version="1.1" xmlns="http://www.w3.org/2000/svg" width="800" height="448">
<path d="M0 0 C2.97690778 2.03367509 5.47508189 4.43665923 8 7 C8.53109375 7.42667969 9.0621875 7.85335938 9.609375 8.29296875 C13.25486479 12.76790987 13.17858461 18.61411263 13.25 24.125 C13.66467582 32.14738216 16.30365717 37.98534941 20 45 C21.28317892 48.84953676 21.06643637 51.94738135 21 56 C17.37673261 57.2077558 16.35853631 56.54311128 13 55 C14.40735672 60.62942687 16.84665001 64.98590227 21 69 C28.08965222 72.64224174 35.51455981 73.76132778 43.375 74.25 C44.4379126 74.32299316 45.5008252 74.39598633 46.59594727 74.47119141 C67.28235227 75.75144286 87.03816501 76.37649677 106.9453125 70.06640625 C128.88150194 63.53554643 154.63590382 69.46787541 176.87685013 72.21587372 C179.71565479 72.56597222 182.55487282 72.91250509 185.39425659 73.25787354 C193.00333208 74.18352322 200.61214394 75.11107011 208.21882629 76.05621338 C217.56054582 77.21663529 226.90357378 78.3452797 236.25842285 79.39471436 C261.4366612 82.22783041 284.71614178 86.35632705 308.37597656 95.60009766 C311.67554032 96.87466641 314.98879807 98.05680447 318.3359375 99.19921875 C328.47762167 102.71340378 336.9427779 107.03269696 345.61376953 113.3125 C350.40793748 116.70285081 355.32880886 119.91080344 360.22283936 123.15460205 C363.16380802 125.10558803 366.09931012 127.06475547 369.03515625 129.0234375 C370.0394165 129.69294434 371.04367676 130.36245117 372.07836914 131.05224609 C375.05224609 133.03483073 378.02612305 135.01741536 381 137 C380.34 137.33 379.68 137.66 379 138 C378.22398437 137.53464844 377.44796875 137.06929687 376.6484375 136.58984375 C371.33190434 134.27311035 366.36438853 134.5107901 360.625 134.5625 C359.46411865 134.57007324 358.3032373 134.57764648 357.10717773 134.58544922 C343.46170571 134.84554378 328.35054577 136.87282274 318.1015625 146.84765625 C312.87268729 153.26259339 310.38289896 160.71751806 310.62890625 168.98046875 C311.19617011 172.06757839 312.79111245 173.86014019 315 176 C312.622385 175.59006638 311.32507235 175.36377144 309.6875 173.53125 C302.35384273 166.87663507 282.8667953 169.44821191 273.67480469 169.81347656 C263.76988506 170.50418107 256.49335704 174.54574259 250 182 C248.15102361 185.16629822 247.53902533 187.31220264 248 191 C249.39957197 193.28484306 249.39957197 193.28484306 251 195 C250.67 195.66 250.34 196.32 250 197 C249.42958984 196.32904297 249.42958984 196.32904297 248.84765625 195.64453125 C240.42902847 187.00484541 226.25145594 184.19702894 214.50390625 183.796875 C212.85683143 183.77580929 211.2096773 183.76030291 209.5625 183.75 C208.74201172 183.729375 207.92152344 183.70875 207.07617188 183.6875 C200.18112904 183.64347738 195.50988118 184.87205726 190.125 189.4375 C188.11403124 191.86249174 187.40421483 192.9683888 187 196 C186.67 196.99 186.34 197.98 186 199 C185.80277344 198.25878906 185.60554687 197.51757812 185.40234375 196.75390625 C183.56201957 193.13989915 181.02017571 191.77911805 177.5625 189.9375 C176.93939941 189.59388428 176.31629883 189.25026855 175.67431641 188.89624023 C165.45608581 183.39843044 154.20214618 178.92486595 142.48828125 181.56640625 C136.68996442 183.35718186 136.68996442 183.35718186 132 187 C131.19053578 190.10197397 131.19053578 190.10197397 131 193 C130.34 192.67 129.68 192.34 129 192 C128.71125 191.113125 128.4225 190.22625 128.125 189.3125 C125.83613105 182.57305253 122.03678313 178.5156208 116 175 C112.43913342 173.81304447 109.02668976 173.64904582 105.3125 173.4375 C104.2596582 173.37272461 104.2596582 173.37272461 103.18554688 173.30664062 C101.45724794 173.2008264 99.7286489 173.09993419 98 173 C98 174.65 98 176.3 98 178 C97.34 178 96.68 178 96 178 C95.80921875 177.25621094 95.6184375 176.51242188 95.421875 175.74609375 C93.50713581 172.04812219 90.87077531 170.79283275 87.25 169.0625 C86.20283813 168.5526355 86.20283813 168.5526355 85.13452148 168.0324707 C75.82959243 163.72614913 65.95980958 161.28600991 56 159 C55.22978516 158.82065918 54.45957031 158.64131836 53.66601562 158.45654297 C42.41423773 155.92061183 31.50095136 155.65913756 20 156 C23.90644067 157.13053242 27.81850173 158.221536 31.75 159.26171875 C48.24318778 163.69562408 62.35448142 170.31198051 77 179 C77 179.66 77 180.32 77 181 C75.85724609 181.02126953 75.85724609 181.02126953 74.69140625 181.04296875 C67.46902294 181.37658696 61.68106938 182.28690187 56 187 C55.06260691 188.34701023 54.1666747 189.72374059 53.3125 191.125 C51.32099353 194.09557111 50.29657281 194.90260695 46.8359375 196.0390625 C44.38703441 196.51625775 41.93218921 196.96383843 39.47265625 197.3828125 C31.5195489 198.79630065 26.14589399 201.80668811 20.98046875 208.0546875 C14.53525803 217.63987267 10.11148571 228.92495929 7 240 C6.67128906 241.05888428 6.34257812 242.11776855 6.00390625 243.20874023 C4.36820509 249.82719803 4.40806373 256.68717938 4.1484375 263.46875 C4.08461576 264.99168297 4.02020155 266.51459121 3.95523071 268.03747559 C3.82075103 271.23133877 3.69190896 274.42536247 3.56738281 277.61962891 C3.41050424 281.63814941 3.2421206 285.65607885 3.06985092 289.67396545 C2.31091717 307.45734998 1.7830424 325.19632748 2 343 C3.27703691 343.65903546 4.55647385 344.31342177 5.83691406 344.96582031 C6.54914124 345.33072571 7.26136841 345.6956311 7.99517822 346.07159424 C10.26239556 347.12151182 12.26972977 347.51464589 14.75 347.75 C18.64486169 348.51837408 18.64486169 348.51837408 20.140625 350.546875 C20.73763459 351.90371497 21.30883481 353.27208701 21.859375 354.6484375 C25.8945298 362.96748953 34.45654964 370.25251731 42.6796875 374.328125 C45 376 45 376 45.6796875 378.42578125 C45.74414062 379.37839844 45.80859375 380.33101563 45.875 381.3125 C46.71432746 388.12684172 49.24163386 393.09926315 52.44140625 399.06640625 C55.19633182 404.25174235 55.19633182 404.25174235 54.44140625 407.12890625 C54.00634766 408.33353516 54.00634766 408.33353516 53.5625 409.5625 C50.60161349 418.97730041 52.04216614 426.73916304 55 436 C54.35675781 435.54109375 53.71351563 435.0821875 53.05078125 434.609375 C44.9418865 429.10319254 36.72249019 425.05810085 26.7578125 424.8203125 C26.04004639 424.80274902 25.32228027 424.78518555 24.58276367 424.76708984 C23.18162968 424.75592797 21.77951848 424.78326215 20.38012695 424.85400391 C18.43359375 424.859375 18.43359375 424.859375 15 424 C13.05098297 421.59335633 12.09926987 418.87240823 11 416 C10.24440829 414.31305902 9.48110504 412.62955523 8.7109375 410.94921875 C7.52971532 408.29543267 6.35374003 405.63938716 5.1796875 402.98242188 C4.798125 402.12583984 4.4165625 401.26925781 4.0234375 400.38671875 C3.68231934 399.61545654 3.34120117 398.84419434 2.98974609 398.04956055 C1.94910214 395.77449521 1.94910214 395.77449521 0 393 C-0.66 395.64 -1.32 398.28 -2 401 C-2.66 401 -3.32 401 -4 401 C-4.33 398.36 -4.66 395.72 -5 393 C-8.16946449 393.69065227 -8.16946449 393.69065227 -9.39453125 396.37890625 C-13.29254447 405.13064393 -16.7395796 413.9933777 -20 423 C-20.93199219 423.02578125 -21.86398437 423.0515625 -22.82421875 423.078125 C-36.03103422 423.66568807 -46.9034168 426.50230865 -58 434 C-58.99 434.66 -59.98 435.32 -61 436 C-60.505 434.865625 -60.01 433.73125 -59.5 432.5625 C-57.88567859 427.76544066 -57.69608014 423.26026685 -57.6875 418.25 C-57.68234375 417.51724854 -57.6771875 416.78449707 -57.671875 416.02954102 C-57.72465535 411.90089254 -58.23531364 408.72772894 -60 405 C-60.70207764 401.28901821 -59.78920143 399.49292025 -57.75 396.5 C-53.71729093 390.47384952 -51.37597864 383.0505432 -50.70703125 375.84375 C-49.75627335 372.01970717 -48.21164337 371.22369437 -44.9375 369.125 C-37.47610903 364.0188217 -32.07983873 359.02686359 -27.5 351.1875 C-24.82224318 346.77133613 -22.94285605 344.72252478 -17.93359375 343.4140625 C-17.29550781 343.27742188 -16.65742188 343.14078125 -16 343 C-14.845 342.608125 -13.69 342.21625 -12.5 341.8125 C-11.675 341.544375 -10.85 341.27625 -10 341 C-10 339.68 -10 338.36 -10 337 C-9.34 337 -8.68 337 -8 337 C-8.47968835 326.71488945 -8.96617224 316.43012389 -9.46098137 306.14572906 C-9.69061407 301.36862067 -9.91803436 296.59142974 -10.14013672 291.81396484 C-10.35515953 287.19063158 -10.57633555 282.56762763 -10.80151749 277.94477844 C-10.88575895 276.19413854 -10.96790141 274.44339614 -11.0477562 272.69255066 C-11.97880698 252.34814168 -13.97794772 234.21851832 -23.5 215.875 C-23.86746338 215.1641626 -24.23492676 214.4533252 -24.61352539 213.72094727 C-26.91212064 209.4756292 -29.35188896 206.24404811 -33 203 C-33.62261719 202.44441406 -34.24523437 201.88882813 -34.88671875 201.31640625 C-37.73906706 199.53961996 -40.57112855 198.80490926 -43.8125 197.9375 C-44.99457031 197.61652344 -46.17664063 197.29554688 -47.39453125 196.96484375 C-49.85369308 196.30675819 -52.32189196 195.68176675 -54.796875 195.0859375 C-58.06857629 193.97675097 -58.8707384 193.61948956 -60.4375 190.6875 C-63.2105771 186.41642627 -66.19942605 183.81540692 -71 182 C-75.33570716 181.32876093 -79.61606048 181.07351118 -84 181 C-84 180.34 -84 179.68 -84 179 C-68.45177492 168.16457889 -50.9664974 161.26655982 -32.4296875 157.69140625 C-29.15622483 157.1871284 -29.15622483 157.1871284 -27 156 C-50.22078124 155.52610651 -81.75661155 157.91089144 -101 173 C-102.63790024 175.61169724 -102.63790024 175.61169724 -103 178 C-103.66 178 -104.32 178 -105 178 C-105 176.68 -105 175.36 -105 174 C-113.70232477 173.37343262 -120.5831842 172.95732877 -127.9765625 178.15234375 C-132.4583222 182.24476139 -135.04098163 187.30103746 -137 193 C-137.33 193 -137.66 193 -138 193 C-138.226875 191.906875 -138.45375 190.81375 -138.6875 189.6875 C-139.65344941 185.95558151 -139.65344941 185.95558151 -142.25 184.1875 C-143.1575 183.795625 -144.065 183.40375 -145 183 C-145.845625 182.608125 -146.69125 182.21625 -147.5625 181.8125 C-162.80342147 178.21010038 -175.01842716 184.67983532 -188 192 C-188.76828125 192.34546875 -189.5365625 192.6909375 -190.328125 193.046875 C-192.30716796 193.91694348 -192.30716796 193.91694348 -192.75 196.625 C-192.8325 197.40875 -192.915 198.1925 -193 199 C-194 196 -194 196 -194.25 194.125 C-195.79768384 189.73989578 -199.13215603 187.44795429 -203.140625 185.37890625 C-207.30340013 183.68346415 -211.1665828 183.46432891 -215.625 183.5 C-216.43606201 183.50354492 -217.24712402 183.50708984 -218.08276367 183.51074219 C-224.66783428 183.68395094 -230.90792943 184.74834747 -237.3125 186.25 C-238.18922363 186.45431641 -239.06594727 186.65863281 -239.96923828 186.86914062 C-247.2228193 188.73069156 -252.24415981 192.25989631 -258 197 C-257.690625 196.278125 -257.38125 195.55625 -257.0625 194.8125 C-255.57546891 191.00224135 -255.57546891 191.00224135 -255 187 C-256.14517388 184.52147814 -257.55154643 182.32630422 -259 180 C-259 179.34 -259 178.68 -259 178 C-259.58265625 177.71125 -260.1653125 177.4225 -260.765625 177.125 C-262.13885685 176.43358256 -263.5053091 175.72823713 -264.859375 175 C-265.48328125 174.67 -266.1071875 174.34 -266.75 174 C-267.36359375 173.67 -267.9771875 173.34 -268.609375 173 C-275.98675922 169.91403536 -282.91859874 169.69061015 -290.8125 169.75 C-292.33713867 169.73839844 -292.33713867 169.73839844 -293.89257812 169.7265625 C-303.73472515 169.75165402 -312.67502926 170.45001951 -321 176 C-319.125 172.125 -319.125 172.125 -318 171 C-316.94326483 162.42485396 -319.03537909 154.59908229 -324.25 147.6875 C-336.40310356 135.81060334 -352.28565569 134.84644618 -368.4375 134.6875 C-370.00177734 134.66103394 -370.00177734 134.66103394 -371.59765625 134.6340332 C-377.26990137 134.63907153 -381.00206966 135.05000209 -386 138 C-386.66 137.67 -387.32 137.34 -388 137 C-385.79311844 135.52451527 -383.58608701 134.04925582 -381.37890625 132.57421875 C-380.69223877 132.11530243 -380.00557129 131.65638611 -379.2980957 131.18356323 C-375.52111073 128.66038294 -371.74189357 126.14063266 -367.95874023 123.62670898 C-366.82697609 122.8746241 -366.82697609 122.8746241 -365.67234802 122.10734558 C-364.16457668 121.10545751 -362.65673394 120.10367689 -361.14881897 119.102005 C-357.29831492 116.54098359 -353.46436248 113.95981988 -349.65625 111.3359375 C-341.1521545 105.52347853 -332.76592338 101.37516267 -323.01757812 98.05615234 C-320.1140627 97.03992194 -317.2399401 95.95868645 -314.36528015 94.86395264 C-293.16175795 86.84836271 -272.77369244 82.82692393 -250.23622131 80.74084473 C-243.71329405 80.12088875 -237.26545572 79.18743438 -230.79281616 78.17852783 C-221.27326564 76.70597254 -211.7186347 75.54552848 -202.15686035 74.38470459 C-198.96296795 73.99548716 -195.76999838 73.59933212 -192.57714844 73.20166016 C-187.11356984 72.52282767 -181.64802944 71.8619099 -176.18115234 71.21020508 C-173.97287887 70.94456651 -171.76518814 70.674039 -169.55810547 70.39868164 C-149.91979838 67.95366464 -130.33935592 65.64220017 -111 70.9375 C-108.83360331 71.48934218 -106.6669454 72.04016017 -104.5 72.58984375 C-103.5821875 72.83597412 -102.664375 73.08210449 -101.71875 73.33569336 C-96.29265795 74.66151919 -91.25556223 75.11941176 -85.66796875 75.078125 C-84.97470993 75.07371399 -84.28145111 75.06930298 -83.56718445 75.0647583 C-81.37803571 75.04869635 -79.18906741 75.0246216 -77 75 C-75.60628318 74.98885382 -74.21256573 74.97778492 -72.81884766 74.96679688 C-69.34782928 74.93427861 -65.87822114 74.87111975 -62.40795898 74.79248047 C-61.00574373 74.76405387 -59.60336177 74.74294879 -58.20092773 74.72900391 C-49.60438818 74.63944625 -41.9588766 73.83609941 -33.75854492 70.94628906 C-31 70 -31 70 -28.2043457 69.50683594 C-27.47691162 69.33958008 -26.74947754 69.17232422 -26 69 C-24.83486387 66.80067065 -24.83486387 66.80067065 -24 64 C-23.31376163 62.75836249 -22.60414548 61.52943618 -21.875 60.3125 C-19.83580059 57.34430563 -19.83580059 57.34430563 -20 55 C-20.5775 55.350625 -21.155 55.70125 -21.75 56.0625 C-24.35801776 57.14917407 -25.39417629 56.93065133 -28 56 C-28.58119108 48.00862262 -26.05722687 42.80967939 -22.3125 35.875 C-20.70370909 32.20145069 -20.70031562 28.53346249 -20.5 24.5625 C-19.94995193 14.40161196 -18.24785128 9.6157393 -10.83984375 2.56640625 C-7.27316385 -0.47019383 -4.63865284 -0.59853585 0 0 Z " fill="#010101" transform="translate(399,5)"/>
<path d="M0 0 C1.47968324 0.14049518 2.95874516 0.28754826 4.4375 0.4375 C5.67306641 0.55931641 5.67306641 0.55931641 6.93359375 0.68359375 C9 1 9 1 10 2 C10.04080783 3.99958364 10.04254356 6.00045254 10 8 C14.35523438 10.37558239 17.82531753 12.08030852 22.75 12.75 C26.64486169 13.51837408 26.64486169 13.51837408 28.140625 15.546875 C28.73763459 16.90371497 29.30883481 18.27208701 29.859375 19.6484375 C33.8945298 27.96748953 42.45654964 35.25251731 50.6796875 39.328125 C53 41 53 41 53.6796875 43.42578125 C53.74414062 44.37839844 53.80859375 45.33101563 53.875 46.3125 C54.71432746 53.12684172 57.24163386 58.09926315 60.44140625 64.06640625 C63.19633182 69.25174235 63.19633182 69.25174235 62.44140625 72.12890625 C62.15136719 72.93199219 61.86132812 73.73507812 61.5625 74.5625 C58.60161349 83.97730041 60.04216614 91.73916304 63 101 C62.35675781 100.54109375 61.71351563 100.0821875 61.05078125 99.609375 C52.9418865 94.10319254 44.72249019 90.05810085 34.7578125 89.8203125 C34.04004639 89.80274902 33.32228027 89.78518555 32.58276367 89.76708984 C31.18162968 89.75592797 29.77951848 89.78326215 28.38012695 89.85400391 C26.43359375 89.859375 26.43359375 89.859375 23 89 C21.05098297 86.59335633 20.09926987 83.87240823 19 81 C18.24440829 79.31305902 17.48110504 77.62955523 16.7109375 75.94921875 C15.52971532 73.29543267 14.35374003 70.63938716 13.1796875 67.98242188 C12.798125 67.12583984 12.4165625 66.26925781 12.0234375 65.38671875 C11.68231934 64.61545654 11.34120117 63.84419434 10.98974609 63.04956055 C9.94910214 60.77449521 9.94910214 60.77449521 8 58 C7.34 60.64 6.68 63.28 6 66 C5.34 66 4.68 66 4 66 C3.505 62.04 3.505 62.04 3 58 C-0.16946449 58.69065227 -0.16946449 58.69065227 -1.39453125 61.37890625 C-5.29254447 70.13064393 -8.7395796 78.9933777 -12 88 C-12.93199219 88.02578125 -13.86398437 88.0515625 -14.82421875 88.078125 C-28.03103422 88.66568807 -38.9034168 91.50230865 -50 99 C-51.485 99.99 -51.485 99.99 -53 101 C-52.505 99.865625 -52.01 98.73125 -51.5 97.5625 C-49.88567859 92.76544066 -49.69608014 88.26026685 -49.6875 83.25 C-49.67976563 82.1508728 -49.67976563 82.1508728 -49.671875 81.02954102 C-49.72465535 76.90089254 -50.23531364 73.72772894 -52 70 C-52.70207764 66.28901821 -51.78920143 64.49292025 -49.75 61.5 C-45.71729093 55.47384952 -43.37597864 48.0505432 -42.70703125 40.84375 C-41.75627335 37.01970717 -40.21164337 36.22369437 -36.9375 34.125 C-29.47610903 29.0188217 -24.07983873 24.02686359 -19.5 16.1875 C-16.82224318 11.77133613 -14.94285605 9.72252478 -9.93359375 8.4140625 C-9.29550781 8.27742188 -8.65742188 8.14078125 -8 8 C-6.845 7.608125 -5.69 7.21625 -4.5 6.8125 C-3.675 6.544375 -2.85 6.27625 -2 6 C-2 4.68 -2 3.36 -2 2 C-1.34 2 -0.68 2 0 2 C0 1.34 0 0.68 0 0 Z " fill="#020202" transform="translate(391,340)"/>
<path d="M0 0 C0.28743798 5.54999933 0.57217781 11.10012831 0.85449219 16.65039062 C0.95076794 18.53584468 1.04776203 20.42126221 1.14550781 22.30664062 C1.28642728 25.02724919 1.42470475 27.74798162 1.5625 30.46875 C1.60624756 31.30241089 1.64999512 32.13607178 1.69506836 32.99499512 C2.387688 46.83693599 2.387688 46.83693599 1 51 C0.01 51.495 0.01 51.495 -1 52 C-6.00425816 61.17949766 -9.44984037 71.19299875 -13 81 C-13.93199219 81.02578125 -14.86398437 81.0515625 -15.82421875 81.078125 C-29.03103422 81.66568807 -39.9034168 84.50230865 -51 92 C-52.485 92.99 -52.485 92.99 -54 94 C-53.505 92.865625 -53.01 91.73125 -52.5 90.5625 C-50.88567859 85.76544066 -50.69608014 81.26026685 -50.6875 76.25 C-50.67976563 75.1508728 -50.67976563 75.1508728 -50.671875 74.02954102 C-50.72465535 69.90089254 -51.23531364 66.72772894 -53 63 C-53.70207764 59.28901821 -52.78920143 57.49292025 -50.75 54.5 C-46.71729093 48.47384952 -44.37597864 41.0505432 -43.70703125 33.84375 C-42.75627335 30.01970717 -41.21164337 29.22369437 -37.9375 27.125 C-30.47610903 22.0188217 -25.07983873 17.02686359 -20.5 9.1875 C-18.29969701 5.54214676 -16.86604474 3.40606704 -12.8125 1.9375 C-11.554375 1.628125 -10.29625 1.31875 -9 1 C-8.278125 0.5875 -7.55625 0.175 -6.8125 -0.25 C-4.30342245 -1.28823899 -2.59453558 -0.59449261 0 0 Z " fill="#F60402" transform="translate(392,347)"/>
<path d="M0 0 C0.28743798 5.54999933 0.57217781 11.10012831 0.85449219 16.65039062 C0.95076794 18.53584468 1.04776203 20.42126221 1.14550781 22.30664062 C1.28642728 25.02724919 1.42470475 27.74798162 1.5625 30.46875 C1.60624756 31.30241089 1.64999512 32.13607178 1.69506836 32.99499512 C2.387688 46.83693599 2.387688 46.83693599 1 51 C0.34 51 -0.32 51 -1 51 C-1.33 49.35 -1.66 47.7 -2 46 C-4.7710688 48.34591852 -5.52059284 50.14776201 -6.1875 53.6875 C-6.42533203 54.89986328 -6.42533203 54.89986328 -6.66796875 56.13671875 C-6.77753906 56.75160156 -6.88710938 57.36648438 -7 58 C-7.28617187 57.360625 -7.57234375 56.72125 -7.8671875 56.0625 C-8.83357668 53.8239113 -8.83357668 53.8239113 -11.125 53 C-14.23147436 53 -15.28008815 53.5366451 -17.9375 55 C-20.79771973 56.55376598 -21.82679516 57.00339617 -25.1875 56.9375 C-28 56 -28 56 -30.5625 54.375 C-32.92462179 52.75802017 -32.92462179 52.75802017 -35.6875 53.125 C-38.33345392 53.86978792 -38.33345392 53.86978792 -40 57 C-41 56 -41 56 -41.0625 52.4375 C-41.041875 51.303125 -41.02125 50.16875 -41 49 C-39.02 48.34 -37.04 47.68 -35 47 C-34.67 45.35 -34.34 43.7 -34 42 C-32.515 41.505 -32.515 41.505 -31 41 C-31 39.68 -31 38.36 -31 37 C-29.56274129 36.83126522 -28.12518162 36.66509263 -26.6875 36.5 C-25.88699219 36.4071875 -25.08648437 36.314375 -24.26171875 36.21875 C-22 36 -22 36 -19 36 C-19 36.66 -19 37.32 -19 38 C-18.01 38 -17.02 38 -16 38 C-16 38.99 -16 39.98 -16 41 C-10.7415998 40.32584613 -5.97361654 38.75734451 -1 37 C-1 34.69 -1 32.38 -1 30 C-21.79 30.99 -21.79 30.99 -43 32 C-40.31044256 29.31044256 -38.19339174 27.31182675 -35.1875 25.1875 C-28.96274843 20.55351828 -24.48674372 15.98869001 -20.5625 9.25 C-17.29072682 3.86336443 -15.05344583 2.48855225 -9 1 C-8.278125 0.5875 -7.55625 0.175 -6.8125 -0.25 C-4.30342245 -1.28823899 -2.59453558 -0.59449261 0 0 Z " fill="#EE0A04" transform="translate(392,347)"/>
<path d="M0 0 C0.33 0.99 0.66 1.98 1 3 C1.763125 2.79375 2.52625 2.5875 3.3125 2.375 C6 2 6 2 9 4 C9.33 3.34 9.66 2.68 10 2 C10.66 2 11.32 2 12 2 C12.33 2.33 12.66 2.66 13 3 C13.66 2.67 14.32 2.34 15 2 C17.00800456 2.28112064 19.01014051 2.61067967 21 3 C20.1875 5.9375 20.1875 5.9375 19 9 C18.01 9.33 17.02 9.66 16 10 C16 10.66 16 11.32 16 12 C15.34 12 14.68 12 14 12 C14 12.66 14 13.32 14 14 C12.49609375 15.48046875 12.49609375 15.48046875 10.4375 17.1875 C6.8810768 20.17741331 3.72389279 23.34008191 0.640625 26.8125 C-1 28 -1 28 -3.203125 27.6875 C-3.79609375 27.460625 -4.3890625 27.23375 -5 27 C-5 28.65 -5 30.3 -5 32 C-5.99 32.495 -5.99 32.495 -7 33 C-6.98952637 32.37955811 -6.97905273 31.75911621 -6.96826172 31.11987305 C-6.92669114 28.30912323 -6.90067067 25.4984381 -6.875 22.6875 C-6.85824219 21.71103516 -6.84148437 20.73457031 -6.82421875 19.72851562 C-6.81777344 18.79072266 -6.81132812 17.85292969 -6.8046875 16.88671875 C-6.79421387 16.02264404 -6.78374023 15.15856934 -6.77294922 14.26831055 C-6.84909832 11.71819279 -6.84909832 11.71819279 -9 9 C-9.125 6.3125 -9.125 6.3125 -9 4 C-6.03 2.68 -3.06 1.36 0 0 Z " fill="#F50504" transform="translate(349,403)"/>
<path d="M0 0 C1.21236328 0.01353516 1.21236328 0.01353516 2.44921875 0.02734375 C3.37154297 0.04474609 3.37154297 0.04474609 4.3125 0.0625 C4.3125 0.7225 4.3125 1.3825 4.3125 2.0625 C5.3025 2.0625 6.2925 2.0625 7.3125 2.0625 C7.3125 3.0525 7.3125 4.0425 7.3125 5.0625 C7.951875 5.31 8.59125 5.5575 9.25 5.8125 C9.930625 6.225 10.61125 6.6375 11.3125 7.0625 C11.456875 7.7225 11.60125 8.3825 11.75 9.0625 C11.935625 9.7225 12.12125 10.3825 12.3125 11.0625 C14.80284386 12.35910434 14.80284386 12.35910434 17.3125 13.0625 C17.4375 16.4375 17.4375 16.4375 17.3125 20.0625 C16.6525 20.7225 15.9925 21.3825 15.3125 22.0625 C14.8175 20.0825 14.8175 20.0825 14.3125 18.0625 C11.70257351 17.08377757 9.99140605 16.75580733 7.41015625 17.921875 C6.73855469 18.29828125 6.06695312 18.6746875 5.375 19.0625 C2.51478027 20.61626598 1.48570484 21.06589617 -1.875 21 C-4.6875 20.0625 -4.6875 20.0625 -7.25 18.4375 C-9.61212179 16.82052017 -9.61212179 16.82052017 -12.375 17.1875 C-15.02095392 17.93228792 -15.02095392 17.93228792 -16.6875 21.0625 C-17.6875 20.0625 -17.6875 20.0625 -17.75 16.5 C-17.729375 15.365625 -17.70875 14.23125 -17.6875 13.0625 C-15.7075 12.4025 -13.7275 11.7425 -11.6875 11.0625 C-11.3575 9.4125 -11.0275 7.7625 -10.6875 6.0625 C-9.6975 5.7325 -8.7075 5.4025 -7.6875 5.0625 C-7.6875 3.7425 -7.6875 2.4225 -7.6875 1.0625 C-4.80538698 0.10179566 -2.98899956 -0.04331883 0 0 Z " fill="#F9EFEB" transform="translate(368.6875,382.9375)"/>
<path d="M0 0 C0 2.31 0 4.62 0 7 C-1.74294678 7.86846831 -3.49468663 8.71930627 -5.25 9.5625 C-6.22453125 10.03816406 -7.1990625 10.51382812 -8.203125 11.00390625 C-11.09856297 12.03510273 -12.19966161 12.11346788 -15 11 C-15 10.01 -15 9.02 -15 8 C-15.99 8 -16.98 8 -18 8 C-18 7.34 -18 6.68 -18 6 C-19.5778125 6.2475 -19.5778125 6.2475 -21.1875 6.5 C-24.20468796 6.89569678 -26.97093972 7.09178971 -30 7 C-30 8.32 -30 9.64 -30 11 C-33 13 -33 13 -36 13 C-36 13.66 -36 14.32 -36 15 C-36.66 15 -37.32 15 -38 15 C-38 15.66 -38 16.32 -38 17 C-38.99 17 -39.98 17 -41 17 C-42.5111995 11.96266834 -41.64599773 7.11828973 -41 2 C-38.39471466 1.13157155 -36.65009849 0.82270236 -33.96484375 0.68359375 C-33.16336914 0.64161865 -32.36189453 0.59964355 -31.53613281 0.55639648 C-30.67858398 0.51716064 -29.82103516 0.4779248 -28.9375 0.4375 C-27.61830566 0.37381226 -27.61830566 0.37381226 -26.27246094 0.30883789 C-17.51313005 -0.08055276 -8.76576529 -0.09528006 0 0 Z " fill="#F10B07" transform="translate(391,377)"/>
<path d="M0 0 C0.33 0.66 0.66 1.32 1 2 C3.02463255 2.65213292 3.02463255 2.65213292 5 3 C5 4.32 5 5.64 5 7 C5.99 7.33 6.98 7.66 8 8 C7.690625 8.598125 7.38125 9.19625 7.0625 9.8125 C5.89790296 12.08956772 5.89790296 12.08956772 5 15 C4.34 15 3.68 15 3 15 C3 15.66 3 16.32 3 17 C-0.43727803 17.33564902 -3.87485613 17.66812049 -7.3125 18 C-8.28896484 18.09539062 -9.26542969 18.19078125 -10.27148438 18.2890625 C-11.20927734 18.37929688 -12.14707031 18.46953125 -13.11328125 18.5625 C-13.97735596 18.64628906 -14.84143066 18.73007812 -15.73168945 18.81640625 C-18 19 -18 19 -21 19 C-20.34 17.68 -19.68 16.36 -19 15 C-16.69 15 -14.38 15 -12 15 C-12 14.34 -12 13.68 -12 13 C-12.66 12.67 -13.32 12.34 -14 12 C-13.34 11.01 -12.68 10.02 -12 9 C-11.34 9 -10.68 9 -10 9 C-9.87625 8.236875 -9.7525 7.47375 -9.625 6.6875 C-8.87233753 3.45105138 -7.89112919 1.57492206 -5.0625 -0.25 C-3 -1 -3 -1 0 0 Z " fill="#F70302" transform="translate(379,357)"/>
<path d="M0 0 C1.47968324 0.14049518 2.95874516 0.28754826 4.4375 0.4375 C5.67306641 0.55931641 5.67306641 0.55931641 6.93359375 0.68359375 C9 1 9 1 10 2 C10.04063832 3.66617115 10.042721 5.33388095 10 7 C9.01 7.495 9.01 7.495 8 8 C7.01 7.67 6.02 7.34 5 7 C5.33 22.18 5.66 37.36 6 53 C6.66 53 7.32 53 8 53 C9.18771723 56.42943519 8.80226223 58.37784675 7.5625 61.75 C7.13130859 62.94882812 7.13130859 62.94882812 6.69140625 64.171875 C6.46324219 64.77515625 6.23507812 65.3784375 6 66 C5.34 66 4.68 66 4 66 C2.06958034 57.29156162 1.58334284 48.77499277 1.375 39.875 C1.33713701 38.49860361 1.2988039 37.12222007 1.26000977 35.74584961 C1.0013326 26.16329788 0.87181318 16.58552541 1 7 C0.01 7 -0.98 7 -2 7 C-2 5.35 -2 3.7 -2 2 C-1.34 2 -0.68 2 0 2 C0 1.34 0 0.68 0 0 Z " fill="#462519" transform="translate(391,340)"/>
<path d="M0 0 C0.66 0 1.32 0 2 0 C2.19665429 3.93709911 2.38075477 7.87468672 2.5625 11.8125 C2.64661133 13.49182617 2.64661133 13.49182617 2.73242188 15.20507812 C2.78076172 16.27822266 2.82910156 17.35136719 2.87890625 18.45703125 C2.9260376 19.44678955 2.97316895 20.43654785 3.02172852 21.45629883 C3 24 3 24 2 27 C1.34 27 0.68 27 0 27 C-0.33 25.35 -0.66 23.7 -1 22 C-1.37125 22.515625 -1.7425 23.03125 -2.125 23.5625 C-4 25 -4 25 -7.1875 24.6875 C-8.115625 24.460625 -9.04375 24.23375 -10 24 C-10.66 22.02 -11.32 20.04 -12 18 C-10.37750059 17.16180842 -8.75191503 16.3295884 -7.125 15.5 C-6.22007812 15.0359375 -5.31515625 14.571875 -4.3828125 14.09375 C-2 13 -2 13 0 13 C0 10.69 0 8.38 0 6 C-20.79 6.99 -20.79 6.99 -42 8 C-39.29710121 5.29710121 -37.63126092 5.61170708 -33.84765625 5.3671875 C-31.96916992 5.24150391 -31.96916992 5.24150391 -30.05273438 5.11328125 C-28.07756836 4.99533203 -28.07756836 4.99533203 -26.0625 4.875 C-24.78052734 4.78863281 -23.49855469 4.70226562 -22.17773438 4.61328125 C-14.77467796 4.13761317 -7.41783284 3.878412 0 4 C0 2.68 0 1.36 0 0 Z " fill="#F36956" transform="translate(391,371)"/>
<path d="M0 0 C0.66 0.33 1.32 0.66 2 1 C2 1.99 2 2.98 2 4 C3.98 4 5.96 4 8 4 C8 5.32 8 6.64 8 8 C7.34 8 6.68 8 6 8 C6.33 9.98 6.66 11.96 7 14 C8.98 13.67 10.96 13.34 13 13 C12.67 10.03 12.34 7.06 12 4 C16.59074074 4.4962963 16.59074074 4.4962963 18.625 7 C19.305625 7.99 19.305625 7.99 20 9 C20.99 9.33 21.98 9.66 23 10 C22.67 10.66 22.34 11.32 22 12 C20.33333333 12.33333333 18.66666667 12.66666667 17 13 C16.030625 13.53625 15.06125 14.0725 14.0625 14.625 C10.38861013 16.27450157 8.81982167 16.13781922 5 15 C3.7315625 14.195625 3.7315625 14.195625 2.4375 13.375 C0.07537821 11.75802017 0.07537821 11.75802017 -2.6875 12.125 C-5.33345392 12.86978792 -5.33345392 12.86978792 -7 16 C-8 15 -8 15 -8.0625 11.4375 C-8.041875 10.303125 -8.02125 9.16875 -8 8 C-6.02 7.34 -4.04 6.68 -2 6 C-1.855625 5.195625 -1.71125 4.39125 -1.5625 3.5625 C-1 1 -1 1 0 0 Z " fill="#E7BEB9" transform="translate(359,388)"/>
<path d="M0 0 C0.33 0 0.66 0 1 0 C1 4.95 1 9.9 1 15 C1.99 15 2.98 15 4 15 C4 14.34 4 13.68 4 13 C4.66 13 5.32 13 6 13 C6 12.34 6 11.68 6 11 C6.66 11 7.32 11 8 11 C8 12.32 8 13.64 8 15 C6.35 15.66 4.7 16.32 3 17 C3 19.31 3 21.62 3 24 C3.66 23.34 4.32 22.68 5 22 C5 23.98 5 25.96 5 28 C3.0625 27.625 3.0625 27.625 1 27 C0.67 26.34 0.34 25.68 0 25 C-1.4835001 25.42257276 -2.96176424 25.86356322 -4.4375 26.3125 C-5.26121094 26.55613281 -6.08492188 26.79976563 -6.93359375 27.05078125 C-7.61550781 27.36402344 -8.29742187 27.67726563 -9 28 C-9.33 28.99 -9.66 29.98 -10 31 C-10.57500341 27.31997819 -9.78921722 25.44345727 -7.75 22.5 C-3.29313205 15.85268275 -1.44635715 7.79586505 0 0 Z " fill="#B81B1B" transform="translate(349,379)"/>
<path d="M0 0 C0 5.28 0 10.56 0 16 C-1.03125 15.113125 -2.0625 14.22625 -3.125 13.3125 C-6.39205431 10.51121718 -9.6873127 7.74710654 -13 5 C-9.76220634 1.00037254 -4.97776602 -1.65925534 0 0 Z " fill="#ED0704" transform="translate(390,347)"/>
<path d="M0 0 C3.49597796 0.32520725 5.89552367 0.94340866 9 2.625 C12.63591714 4.29146202 14.20599311 4.13012971 18 3 C18.886875 2.46375 19.77375 1.9275 20.6875 1.375 C21.450625 0.92125 22.21375 0.4675 23 0 C23.99 0.33 24.98 0.66 26 1 C22.7 3.97 19.4 6.94 16 10 C15.34 9.67 14.68 9.34 14 9 C14.33 8.34 14.66 7.68 15 7 C10.34947128 6.73067479 10.34947128 6.73067479 6 8 C5.67 7.67 5.34 7.34 5 7 C4.01 7.66 3.02 8.32 2 9 C2 8.34 2 7.68 2 7 C1.01 6.67 0.02 6.34 -1 6 C-1.042721 4.33388095 -1.04063832 2.66617115 -1 1 C-0.67 0.67 -0.34 0.34 0 0 Z " fill="#EC0A08" transform="translate(355,399)"/>
<path d="M0 0 C0 2.33333333 0 4.66666667 0 7 C0.66 7.33 1.32 7.66 2 8 C3.09036928 10.9737344 3.03864166 11.88407501 2 15 C0.02 15.33 -1.96 15.66 -4 16 C-5.23076923 10.58461538 -5.23076923 10.58461538 -4.0625 7.625 C-3.711875 7.08875 -3.36125 6.5525 -3 6 C-4.98 6 -6.96 6 -9 6 C-9.33 5.01 -9.66 4.02 -10 3 C-6.86618053 -0.60389239 -4.59270471 -1.53090157 0 0 Z " fill="#FCF6F9" transform="translate(370,386)"/>
<path d="M0 0 C0.99 0.495 0.99 0.495 2 1 C2.4140625 3.72265625 2.4140625 3.72265625 2.625 7.0625 C2.69976562 8.16722656 2.77453125 9.27195312 2.8515625 10.41015625 C2.90054687 11.26480469 2.94953125 12.11945313 3 13 C3.33 13 3.66 13 4 13 C4 15.97 4 18.94 4 22 C4.66 22 5.32 22 6 22 C7.18771723 25.42943519 6.80226223 27.37784675 5.5625 30.75 C5.27503906 31.54921875 4.98757813 32.3484375 4.69140625 33.171875 C4.46324219 33.77515625 4.23507812 34.3784375 4 35 C3.34 35 2.68 35 2 35 C0.23703549 27.02094584 -0.25485556 19.46842799 -0.125 11.3125 C-0.11146484 9.66991211 -0.11146484 9.66991211 -0.09765625 7.99414062 C-0.07438154 5.32918646 -0.04169135 2.66471866 0 0 Z " fill="#261913" transform="translate(393,371)"/>
<path d="M0 0 C0.33 0 0.66 0 1 0 C1 6.93 1 13.86 1 21 C1.33 19.35 1.66 17.7 2 16 C2.763125 15.87625 3.52625 15.7525 4.3125 15.625 C7.20267136 15.11897208 7.20267136 15.11897208 10 13 C10 13.66 10 14.32 10 15 C11.32 15.66 12.64 16.32 14 17 C12.55367188 17.70576172 12.55367188 17.70576172 11.078125 18.42578125 C9.80197704 19.05447179 8.52594126 19.68339007 7.25 20.3125 C6.29867188 20.7755957 6.29867188 20.7755957 5.328125 21.24804688 C1.96852088 22.910351 -1.09858921 24.61879165 -4 27 C-3.525625 25.88625 -3.05125 24.7725 -2.5625 23.625 C0.013951 16.07794305 -0.24700377 7.89560314 0 0 Z " fill="#CE2F2D" transform="translate(342,414)"/>
<path d="M0 0 C-0.33 0.66 -0.66 1.32 -1 2 C-1.66 2 -2.32 2 -3 2 C-2.79375 2.598125 -2.5875 3.19625 -2.375 3.8125 C-2 6 -2 6 -4 9 C-4.66 9 -5.32 9 -6 9 C-6 9.66 -6 10.32 -6 11 C-6.66 11 -7.32 11 -8 11 C-8 11.66 -8 12.32 -8 13 C-8.99 13 -9.98 13 -11 13 C-10.9872661 9.24986563 -10.83642107 5.66406393 -10 2 C-6.61186689 -0.71050648 -4.10658782 -1.73740254 0 0 Z " fill="#F60503" transform="translate(361,381)"/>
<path d="M0 0 C0.33 0.66 0.66 1.32 1 2 C0.34 2 -0.32 2 -1 2 C-1 2.66 -1 3.32 -1 4 C-1.66 4 -2.32 4 -3 4 C-3 4.66 -3 5.32 -3 6 C-3.66 6 -4.32 6 -5 6 C-5 6.66 -5 7.32 -5 8 C-6.609375 9.515625 -6.609375 9.515625 -8.75 11.25 C-11.46486452 13.5362017 -13.15465536 15.23653173 -15.125 18.25 C-17.37163175 21.5450599 -19.40866947 22.39536295 -23 24 C-24.81554159 25.56102491 -24.81554159 25.56102491 -26 27 C-26.66 26.67 -27.32 26.34 -28 26 C-27.51789063 25.60167969 -27.03578125 25.20335937 -26.5390625 24.79296875 C-25.90742188 24.26316406 -25.27578125 23.73335938 -24.625 23.1875 C-23.99851562 22.66542969 -23.37203125 22.14335937 -22.7265625 21.60546875 C-20.7778952 19.91774261 -20.7778952 19.91774261 -19 17 C-18.34 17 -17.68 17 -17 17 C-17 16.34 -17 15.68 -17 15 C-16.34 15 -15.68 15 -15 15 C-15 14.34 -15 13.68 -15 13 C-13.49609375 11.484375 -13.49609375 11.484375 -11.4375 9.75 C-10.71433594 9.13511719 -9.99117188 8.52023437 -9.24609375 7.88671875 C-8.50488281 7.26410156 -7.76367188 6.64148438 -7 6 C-5.66572325 4.85526537 -4.33230167 3.70953272 -3 2.5625 C-2.01 1.716875 -1.02 0.87125 0 0 Z " fill="#FB3127" transform="translate(380,400)"/>
<path d="M0 0 C0.66 0.33 1.32 0.66 2 1 C1.505 1.598125 1.01 2.19625 0.5 2.8125 C-1.28276418 4.97029994 -1.28276418 4.97029994 -1 8 C-1.33 8.66 -1.66 9.32 -2 10 C-5.63 10 -9.26 10 -13 10 C-13 9.34 -13 8.68 -13 8 C-10.90043111 6.50073038 -8.8271391 5.14353977 -6.625 3.8125 C-6.02171875 3.43158203 -5.4184375 3.05066406 -4.796875 2.65820312 C-3.23780048 1.70370306 -1.62150526 0.84409978 0 0 Z " fill="#1B1B1B" transform="translate(328,176)"/>
<path d="M0 0 C0.66 0 1.32 0 2 0 C1.54636829 1.58468677 1.08688548 3.16769924 0.625 4.75 C0.24214844 6.07257813 0.24214844 6.07257813 -0.1484375 7.421875 C-0.42945313 8.27265625 -0.71046875 9.1234375 -1 10 C-1.2165625 10.75410156 -1.433125 11.50820313 -1.65625 12.28515625 C-3 14 -3 14 -6.1953125 14.57421875 C-7.49210937 14.61160156 -8.78890625 14.64898437 -10.125 14.6875 C-11.48313921 14.74051558 -12.84121473 14.79519006 -14.19921875 14.8515625 C-15.45347656 14.90054687 -16.70773437 14.94953125 -18 15 C-20.68359419 15.26495288 -23.33020865 15.61860124 -26 16 C-25.67 15.34 -25.34 14.68 -25 14 C-18.19345895 11.73115298 -11.09083056 11.757348 -4 12 C-3.86722656 11.25363281 -3.73445313 10.50726563 -3.59765625 9.73828125 C-2.82843386 6.21393551 -1.48100753 3.28397321 0 0 Z " fill="#BE1B1C" transform="translate(382,414)"/>
<path d="M0 0 C0.3125 2.25 0.3125 2.25 0 5 C-2.56974999 7.71659284 -4.05344589 8.91586186 -7.8125 9.25 C-8.534375 9.1675 -9.25625 9.085 -10 9 C-10.33 7.35 -10.66 5.7 -11 4 C-9.5437455 3.32880451 -8.08492133 2.66318193 -6.625 2 C-5.81289063 1.62875 -5.00078125 1.2575 -4.1640625 0.875 C-2 0 -2 0 0 0 Z " fill="#D6110B" transform="translate(391,386)"/>
<path d="M0 0 C2.6015625 1.21484375 2.6015625 1.21484375 5.625 2.9375 C6.62789063 3.50339844 7.63078125 4.06929687 8.6640625 4.65234375 C9.43492187 5.09707031 10.20578125 5.54179687 11 6 C11 6.66 11 7.32 11 8 C7.04 8 3.08 8 -1 8 C-2 3 -2 3 -2 1 C-1.34 0.67 -0.68 0.34 0 0 Z " fill="#131313" transform="translate(465,178)"/>
<path d="M0 0 C0.5326514 6.258654 -1.18150494 10.45108785 -4 16 C-5.32 15.34 -6.64 14.68 -8 14 C-8 12.35 -8 10.7 -8 9 C-7.34 9.66 -6.68 10.32 -6 11 C-5.9175 9.9275 -5.835 8.855 -5.75 7.75 C-5.16292205 4.81461025 -3.90782858 0 0 0 Z " fill="#CF3534" transform="translate(391,392)"/>
<path d="M0 0 C0.33 0.66 0.66 1.32 1 2 C0.0625 4.625 0.0625 4.625 -1 7 C-1.66 7 -2.32 7 -3 7 C-3 8.32 -3 9.64 -3 11 C-3 11.66 -3 12.32 -3 13 C-4.051875 13.0825 -5.10375 13.165 -6.1875 13.25 C-10.31626847 14.06221675 -11.84347482 15.36956235 -15 18 C-15.99 17.67 -16.98 17.34 -18 17 C-17.43152344 16.57589844 -16.86304688 16.15179688 -16.27734375 15.71484375 C-10.18450783 11.08672965 -4.27566999 6.41350498 0 0 Z " fill="#D71D1C" transform="translate(370,359)"/>
<path d="M0 0 C0.66 0 1.32 0 2 0 C2 1.98 2 3.96 2 6 C2.99 6.33 3.98 6.66 5 7 C4.25 11.75 4.25 11.75 2 14 C1.34 11.03 0.68 8.06 0 5 C-0.99 5 -1.98 5 -3 5 C-3.0825 5.61875 -3.165 6.2375 -3.25 6.875 C-4 9 -4 9 -6.0625 10.25 C-6.701875 10.4975 -7.34125 10.745 -8 11 C-8 10.01 -8 9.02 -8 8 C-7.34 8 -6.68 8 -6 8 C-6 7.34 -6 6.68 -6 6 C-5.34 6 -4.68 6 -4 6 C-4 5.34 -4 4.68 -4 4 C-3.34 4 -2.68 4 -2 4 C-2 3.34 -2 2.68 -2 2 C-1.34 2 -0.68 2 0 2 C0 1.34 0 0.68 0 0 Z " fill="#E20E08" transform="translate(381,400)"/>
<path d="M0 0 C-0.97453125 0.35771484 -0.97453125 0.35771484 -1.96875 0.72265625 C-4.19786067 1.7925921 -4.19786067 1.7925921 -4.46875 3.99609375 C-4.4790625 4.80175781 -4.489375 5.60742188 -4.5 6.4375 C-4.8815327 12.83049907 -6.34116546 20.34116546 -11 25 C-10.24727273 19.48 -10.24727273 19.48 -8.9375 16.9375 C-7.76797397 14.52047954 -7.85272881 12.65088143 -8 10 C-7.34 10 -6.68 10 -6 10 C-6.185625 9.38125 -6.37125 8.7625 -6.5625 8.125 C-7 6 -7 6 -6 4 C-6.66 3.67 -7.32 3.34 -8 3 C-7.34 3 -6.68 3 -6 3 C-6 2.01 -6 1.02 -6 0 C-3.50907189 -1.24546405 -2.58919267 -0.7767578 0 0 Z " fill="#FCDCD6" transform="translate(353,376)"/>
<path d="M0 0 C2.64 0 5.28 0 8 0 C8 0.33 8 0.66 8 1 C10.31 1.66 12.62 2.32 15 3 C15.33 4.98 15.66 6.96 16 9 C15.34 9 14.68 9 14 9 C14 8.01 14 7.02 14 6 C13.01 6 12.02 6 11 6 C11 5.34 11 4.68 11 4 C9.9275 4.226875 8.855 4.45375 7.75 4.6875 C4 5 4 5 1.5625 3.6875 C0 2 0 2 0 0 Z " fill="#D61718" transform="translate(362,379)"/>
<path d="M0 0 C2.87506421 -0.02712325 5.74986908 -0.04689851 8.625 -0.0625 C9.83736328 -0.07506836 9.83736328 -0.07506836 11.07421875 -0.08789062 C15.50341918 -0.1058955 19.63883424 0.10377338 24 1 C24 1.33 24 1.66 24 2 C17.73 2.99 11.46 3.98 5 5 C5 3.68 5 2.36 5 1 C3.35 1 1.7 1 0 1 C0 0.67 0 0.34 0 0 Z " fill="#D5D5D5" transform="translate(354,160)"/>
<path d="M0 0 C3.49597796 0.32520725 5.89552367 0.94340866 9 2.625 C12.63591714 4.29146202 14.20599311 4.13012971 18 3 C18.886875 2.46375 19.77375 1.9275 20.6875 1.375 C21.450625 0.92125 22.21375 0.4675 23 0 C23.99 0.33 24.98 0.66 26 1 C22.6179342 4.46878544 20.5105783 6.36124537 15.5625 6.4375 C11.45447193 6.19421577 7.85216784 5.44456294 4 4 C3.67 3.34 3.34 2.68 3 2 C0.97536745 1.34786708 0.97536745 1.34786708 -1 1 C-0.67 0.67 -0.34 0.34 0 0 Z " fill="#BE181A" transform="translate(355,399)"/>
<path d="M0 0 C4.59074074 0.4962963 4.59074074 0.4962963 6.625 3 C7.07875 3.66 7.5325 4.32 8 5 C8.99 5.33 9.98 5.66 11 6 C10.67 6.66 10.34 7.32 10 8 C7.35139573 8.59355614 4.70802678 8.74209269 2 9 C1.22678118 6.01758453 0.58803797 3.02419525 0 0 Z " fill="#F9DDDE" transform="translate(371,392)"/>
<path d="M0 0 C0.87914062 0.00451172 1.75828125 0.00902344 2.6640625 0.01367188 C4.81773803 0.02537663 6.97137817 0.04330931 9.125 0.0625 C9.125 0.3925 9.125 0.7225 9.125 1.0625 C7.990625 1.18625 6.85625 1.31 5.6875 1.4375 C3.9240625 1.746875 3.9240625 1.746875 2.125 2.0625 C1.795 2.7225 1.465 3.3825 1.125 4.0625 C-4.485 3.4025 -10.095 2.7425 -15.875 2.0625 C-15.875 1.7325 -15.875 1.4025 -15.875 1.0625 C-10.54632017 -0.04691367 -5.41218145 -0.05298069 0 0 Z " fill="#CFCFCF" transform="translate(428.875,159.9375)"/>
<path d="M0 0 C0.66 0 1.32 0 2 0 C2.33 7.26 2.66 14.52 3 22 C2.34 22 1.68 22 1 22 C-1.4662586 17.30281282 -1.05341417 13.29848102 -0.625 8.1875 C-0.56828125 7.39923828 -0.5115625 6.61097656 -0.453125 5.79882812 C-0.31249026 3.86510039 -0.15766112 1.93241405 0 0 Z " fill="#E37C74" transform="translate(390,347)"/>
<path d="M0 0 C0.66 0.33 1.32 0.66 2 1 C1.34 2.32 0.68 3.64 0 5 C2.31 5 4.62 5 7 5 C7 5.33 7 5.66 7 6 C6.28972656 6.13277344 5.57945312 6.26554687 4.84765625 6.40234375 C3.92855469 6.57894531 3.00945312 6.75554687 2.0625 6.9375 C1.14597656 7.11152344 0.22945313 7.28554688 -0.71484375 7.46484375 C-2.95289844 7.77714988 -2.95289844 7.77714988 -4 9 C-5.66617115 9.04063832 -7.33388095 9.042721 -9 9 C-8.67 8.01 -8.34 7.02 -8 6 C-6.66666667 5.66666667 -5.33333333 5.33333333 -4 5 C-3.67 4.01 -3.34 3.02 -3 2 C-2.01 1.34 -1.02 0.68 0 0 Z " fill="#EC0A09" transform="translate(360,421)"/>
<path d="M0 0 C-1.74387639 1.79799669 -3.49458982 3.58832297 -5.25 5.375 C-5.74113281 5.88289063 -6.23226563 6.39078125 -6.73828125 6.9140625 C-9.30582136 9.51583648 -11.57391571 11.64588097 -15 13 C-15 12.01 -15 11.02 -15 10 C-12.68806023 7.92722641 -10.97064418 6.99021473 -8 6 C-8.33 5.01 -8.66 4.02 -9 3 C-8.01 2.67 -7.02 2.34 -6 2 C-6.33 1.34 -6.66 0.68 -7 0 C-3.98968256 -0.93423645 -3.13349732 -1.04449911 0 0 Z " fill="#FBE7E4" transform="translate(369,362)"/>
<path d="M0 0 C2.64465038 3.1254959 3.84414715 6.08788267 5 10 C2.50935112 10.68707555 0.62113708 11 -2 11 C-2.28571429 3.57142857 -2.28571429 3.57142857 0 0 Z " fill="#F0EFEE" transform="translate(399,397)"/>
<path d="M0 0 C1.15957207 3.47871621 0.77456651 4.34219645 -0.4375 7.6875 C-0.72496094 8.49574219 -1.01242187 9.30398438 -1.30859375 10.13671875 C-1.53675781 10.75160156 -1.76492188 11.36648438 -2 12 C-2.66 12 -3.32 12 -4 12 C-4.66 8.37 -5.32 4.74 -6 1 C-2 0 -2 0 0 0 Z " fill="#48342F" transform="translate(399,394)"/>
<path d="M0 0 C0.99 0.33 1.98 0.66 3 1 C2.83886719 1.69996094 2.67773438 2.39992188 2.51171875 3.12109375 C1.97286487 6.152661 1.83195414 8.98485528 1.8125 12.0625 C1.79832031 13.08472656 1.78414063 14.10695313 1.76953125 15.16015625 C1.99841192 17.98043159 2.54724221 19.6055336 4 22 C3.34 22.33 2.68 22.66 2 23 C1.34786708 25.02463255 1.34786708 25.02463255 1 27 C0.67 27 0.34 27 0 27 C0 18.09 0 9.18 0 0 Z " fill="#120203" transform="translate(396,347)"/>
<path d="M0 0 C0.33 0 0.66 0 1 0 C1.33 1.65 1.66 3.3 2 5 C2.66 4.34 3.32 3.68 4 3 C4 4.98 4 6.96 4 9 C2.0625 8.625 2.0625 8.625 0 8 C-0.33 7.34 -0.66 6.68 -1 6 C-2.4835001 6.42257276 -3.96176424 6.86356322 -5.4375 7.3125 C-6.67306641 7.67794922 -6.67306641 7.67794922 -7.93359375 8.05078125 C-8.61550781 8.36402344 -9.29742187 8.67726563 -10 9 C-10.33 9.99 -10.66 10.98 -11 12 C-11 10.35 -11 8.7 -11 7 C-7.34920174 5.38935371 -3.9492568 4.55105909 0 4 C0 2.68 0 1.36 0 0 Z " fill="#E2463E" transform="translate(350,398)"/>
<path d="M0 0 C0.99 0 1.98 0 3 0 C3.33 1.98 3.66 3.96 4 6 C3.01 6 2.02 6 1 6 C0.34 7.32 -0.32 8.64 -1 10 C-1.99 10 -2.98 10 -4 10 C-3.52449439 8.51965236 -3.04448784 7.04074979 -2.5625 5.5625 C-2.29566406 4.73878906 -2.02882813 3.91507812 -1.75390625 3.06640625 C-1 1 -1 1 0 0 Z " fill="#FBE9DF" transform="translate(391,398)"/>
<path d="M0 0 C2 1 2 1 4 4 C3.21625 4.433125 2.4325 4.86625 1.625 5.3125 C-1.21698375 6.89220247 -1.21698375 6.89220247 -3 10 C-4 9 -4 9 -4.0625 5.4375 C-4.041875 4.303125 -4.02125 3.16875 -4 2 C-2.125 0.9375 -2.125 0.9375 0 0 Z " fill="#FDE6DE" transform="translate(355,394)"/>
<path d="M0 0 C3.94139078 1.66751148 6.7892812 4.22710649 10 7 C8.68 7.33 7.36 7.66 6 8 C5.34 7.01 4.68 6.02 4 5 C3.34 5 2.68 5 2 5 C1.34 5.66 0.68 6.32 0 7 C-0.99 7 -1.98 7 -3 7 C-1.125 2.25 -1.125 2.25 0 0 Z " fill="#DA110D" transform="translate(374,352)"/>
<path d="M0 0 C-3 2 -3 2 -5.5 2.875 C-8.32772011 4.14747405 -9.36262146 5.41466547 -11 8 C-11.33 6.68 -11.66 5.36 -12 4 C-11.01 3.67 -10.02 3.34 -9 3 C-9.66 2.67 -10.32 2.34 -11 2 C-11 1.34 -11 0.68 -11 0 C-7.18243176 -1.37432457 -3.92744671 -0.67975039 0 0 Z " fill="#FADED4" transform="translate(383,348)"/>
<path d="M0 0 C-1 1 -1 1 -3.5625 1.0625 C-4.7690625 1.0315625 -4.7690625 1.0315625 -6 1 C-6 1.66 -6 2.32 -6 3 C-7.2065625 3.4640625 -7.2065625 3.4640625 -8.4375 3.9375 C-10.89080405 4.76335345 -10.89080405 4.76335345 -12 6 C-13.66617115 6.04063832 -15.33388095 6.042721 -17 6 C-14.64350301 3.31127557 -12.36421235 2.0806149 -9.0625 0.75 C-8.20785156 0.39421875 -7.35320312 0.0384375 -6.47265625 -0.328125 C-3.82854634 -1.04658772 -2.54131429 -0.91982605 0 0 Z " fill="#FDE1DB" transform="translate(363,430)"/>
<path d="M0 0 C0.66 0 1.32 0 2 0 C3.10844919 3.32534757 2.84454356 5.62182575 2 9 C0.35 9.33 -1.3 9.66 -3 10 C-2.01 6.7 -1.02 3.4 0 0 Z " fill="#ED0908" transform="translate(347,393)"/>
<path d="M0 0 C1.32 0.33 2.64 0.66 4 1 C4 2.65 4 4.3 4 6 C1.36 6.66 -1.28 7.32 -4 8 C-2.68 5.36 -1.36 2.72 0 0 Z " fill="#F0F0F0" transform="translate(419,213)"/>
<path d="M0 0 C0.99 0.33 1.98 0.66 3 1 C1.68 4.3 0.36 7.6 -1 11 C-1.33 11 -1.66 11 -2 11 C-2.33 8.03 -2.66 5.06 -3 2 C-2.01 1.34 -1.02 0.68 0 0 Z " fill="#292929" transform="translate(263,187)"/>
<path d="M0 0 C0.66 0 1.32 0 2 0 C2 1.32 2 2.64 2 4 C1.21625 4.20625 0.4325 4.4125 -0.375 4.625 C-3.30916286 5.80676612 -3.30916286 5.80676612 -4.3125 9.125 C-4.6528125 10.548125 -4.6528125 10.548125 -5 12 C-5.33 12 -5.66 12 -6 12 C-5.979375 10.9275 -5.95875 9.855 -5.9375 8.75 C-5.9857984 5.85209576 -6.13155885 3.71387859 -7 1 C-6.01 1.495 -6.01 1.495 -5 2 C-5 2.66 -5 3.32 -5 4 C-4.01 4 -3.02 4 -2 4 C-2 3.34 -2 2.68 -2 2 C-1.34 2 -0.68 2 0 2 C0 1.34 0 0.68 0 0 Z " fill="#CB1118" transform="translate(355,390)"/>
<path d="M0 0 C2.86135187 1.43067594 4.78801336 3.73643854 7 6 C8.26951573 7.27214958 9.54037975 8.54295489 10.8125 9.8125 C11.875 10.875 12.9375 11.9375 14 13 C9.66825307 13 7.77646347 10.34177417 4.8125 7.5 C4.25369141 6.97535156 3.69488281 6.45070313 3.11914062 5.91015625 C1.73984636 4.61338387 0.36909356 3.30753741 -1 2 C-0.67 1.34 -0.34 0.68 0 0 Z " fill="#F63D33" transform="translate(376,350)"/>
<path d="M0 0 C-1.62255228 1.48185125 -3.24811888 2.96040256 -4.875 4.4375 C-5.77992188 5.26121094 -6.68484375 6.08492188 -7.6171875 6.93359375 C-10 9 -10 9 -12 10 C-11.75 7.625 -11.75 7.625 -11 5 C-9 3.875 -9 3.875 -7 3 C-6.67 2.01 -6.34 1.02 -6 0 C-3.42525708 -0.99667468 -2.51072708 -1.25536354 0 0 Z " fill="#EA0C08" transform="translate(360,420)"/>
<path d="M0 0 C0.556875 0.28875 1.11375 0.5775 1.6875 0.875 C4.00238964 2.07361818 4.00238964 2.07361818 6.625 2.8125 C9 4 9 4 10.3125 6.625 C10.6528125 7.800625 10.6528125 7.800625 11 9 C6.88949336 7.54923295 3.46285873 5.65754275 0 3 C0 2.01 0 1.02 0 0 Z " fill="#EFEFEF" transform="translate(433,372)"/>
<path d="M0 0 C0 1.32 0 2.64 0 4 C-2.64 4 -5.28 4 -8 4 C-7.67 2.68 -7.34 1.36 -7 0 C-3.98968256 -0.93423645 -3.13349732 -1.04449911 0 0 Z " fill="#F0FDFB" transform="translate(370,386)"/>
<path d="M0 0 C2.97 0.33 5.94 0.66 9 1 C9.33 2.65 9.66 4.3 10 6 C9.34 6 8.68 6 8 6 C8 5.01 8 4.02 8 3 C4.7 3.33 1.4 3.66 -2 4 C-2 3.34 -2 2.68 -2 2 C-1.34 2 -0.68 2 0 2 C0 1.34 0 0.68 0 0 Z " fill="#3C1F11" transform="translate(391,340)"/>
<path d="M0 0 C1 2 1 2 0.5 3.875 C-2.12323349 7.59124745 -6.15401685 9.43200519 -10.4375 10.75 C-11.2109375 10.87375 -11.2109375 10.87375 -12 11 C-8.22975157 7.07265789 -4.11529949 3.55593839 0 0 Z " fill="#BB2526" transform="translate(364,366)"/>
<path d="M0 0 C-0.99 1.485 -0.99 1.485 -2 3 C-3.32 3 -4.64 3 -6 3 C-7.67225729 3.30404678 -9.34080104 3.63128912 -11 4 C-11.33 3.34 -11.66 2.68 -12 2 C-10.75579353 1.4654744 -9.50429064 0.94791389 -8.25 0.4375 C-7.55390625 0.14746094 -6.8578125 -0.14257812 -6.140625 -0.44140625 C-3.69987216 -1.07831803 -2.3596345 -0.80248831 0 0 Z " fill="#E9E9E9" transform="translate(236,187)"/>
<path d="M0 0 C-1.2739589 2.03833424 -2.61061923 4.03852126 -4 6 C-4.66 6 -5.32 6 -6 6 C-6 5.01 -6 4.02 -6 3 C-6.66 3 -7.32 3 -8 3 C-8 2.34 -8 1.68 -8 1 C-3.375 -1.125 -3.375 -1.125 0 0 Z " fill="#141414" transform="translate(102,96)"/>
<path d="M0 0 C0.25 3.3125 0.25 3.3125 0 7 C-2 8.9375 -2 8.9375 -4 10 C-4.75 7.25 -4.75 7.25 -5 4 C-1.84210526 0 -1.84210526 0 0 0 Z " fill="#D3100F" transform="translate(391,392)"/>
<path d="M0 0 C1.21236328 0.01353516 1.21236328 0.01353516 2.44921875 0.02734375 C3.37154297 0.04474609 3.37154297 0.04474609 4.3125 0.0625 C3.9825 0.7225 3.6525 1.3825 3.3125 2.0625 C1.31640625 2.66015625 1.31640625 2.66015625 -1.125 3.125 C-4.51224047 3.7769301 -4.51224047 3.7769301 -7.6875 5.0625 C-7.6875 3.7425 -7.6875 2.4225 -7.6875 1.0625 C-4.80538698 0.10179566 -2.98899956 -0.04331883 0 0 Z " fill="#FACFCD" transform="translate(368.6875,382.9375)"/>
<path d="M0 0 C0.33 0.66 0.66 1.32 1 2 C1.66 2.33 2.32 2.66 3 3 C1.1875 5 1.1875 5 -1 7 C-1.99 7 -2.98 7 -4 7 C-4 6.01 -4 5.02 -4 4 C-3.34 4 -2.68 4 -2 4 C-2.33 3.01 -2.66 2.02 -3 1 C-2.01 0.67 -1.02 0.34 0 0 Z " fill="#F30A07" transform="translate(386,387)"/>
<path d="M0 0 C0.66 0 1.32 0 2 0 C1.57316761 1.58624235 1.13303842 3.1689098 0.6875 4.75 C0.44386719 5.63171875 0.20023437 6.5134375 -0.05078125 7.421875 C-1.02125331 10.05772505 -2.21005644 11.85407326 -4 14 C-3.46148032 8.72250715 -2.22656164 4.74354436 0 0 Z " fill="#DC5D4D" transform="translate(382,414)"/>
<path d="M0 0 C0.61488281 0.08378906 1.22976563 0.16757812 1.86328125 0.25390625 C3.07564453 0.40666016 3.07564453 0.40666016 4.3125 0.5625 C5.11300781 0.66691406 5.91351563 0.77132813 6.73828125 0.87890625 C9.16817116 1.14755178 9.16817116 1.14755178 12 0 C12.66 0.66 13.32 1.32 14 2 C9.94405371 4.02797315 7.37353074 4.23599782 3 3 C1.3203125 1.44921875 1.3203125 1.44921875 0 0 Z " fill="#FCCDCD" transform="translate(361,400)"/>
<path d="M0 0 C0 2.31 0 4.62 0 7 C-0.66 7 -1.32 7 -2 7 C-2.33 5.68 -2.66 4.36 -3 3 C-5.97 2.67 -8.94 2.34 -12 2 C-12 1.67 -12 1.34 -12 1 C-10.37512529 0.83211627 -8.75009558 0.66573213 -7.125 0.5 C-6.22007812 0.4071875 -5.31515625 0.314375 -4.3828125 0.21875 C-2 0 -2 0 0 0 Z " fill="#E40F03" transform="translate(391,377)"/>
<path d="M0 0 C2.475 0.99 2.475 0.99 5 2 C2 4 2 4 0 4 C-0.33 4.99 -0.66 5.98 -1 7 C-1.66 6.67 -2.32 6.34 -3 6 C-2.42655063 3.13275314 -2.1385485 2.1385485 0 0 Z " fill="#0B0B0B" transform="translate(436,377)"/>
<path d="M0 0 C0 0.66 0 1.32 0 2 C-4.33085971 3.29925791 -8.51474352 4.343621 -13 5 C-9.76220634 1.00037254 -4.97776602 -1.65925534 0 0 Z " fill="#C2181D" transform="translate(390,347)"/>
<path d="M0 0 C2.17766075 4.35532149 2.03039555 5.46625958 1 10 C-0.98 10 -2.96 10 -5 10 C-3.68 9.67 -2.36 9.34 -1 9 C-0.67 6.03 -0.34 3.06 0 0 Z " fill="#CF1909" transform="translate(390,365)"/>
<path d="M0 0 C0.99 0.33 1.98 0.66 3 1 C2.67 3.64 2.34 6.28 2 9 C1.34 8.67 0.68 8.34 0 8 C-0.73075648 5.6859378 -1.40138258 3.35171131 -2 1 C-1.34 0.67 -0.68 0.34 0 0 Z " fill="#2E2E2E" transform="translate(528,189)"/>
<path d="M0 0 C1.98 0 3.96 0 6 0 C5.01 0.33 4.02 0.66 3 1 C3 2.32 3 3.64 3 5 C1.02 5.99 1.02 5.99 -1 7 C-0.67 4.69 -0.34 2.38 0 0 Z " fill="#CD1411" transform="translate(358,383)"/>
<path d="M0 0 C1.32 0.33 2.64 0.66 4 1 C4 4.20395416 3.25664978 6.09399739 2 9 C1.67 9 1.34 9 1 9 C0.67 6.03 0.34 3.06 0 0 Z " fill="#F4EFED" transform="translate(400,338)"/>
<path d="M0 0 C3.08089673 2.77280706 4.68775452 5.06326356 6 9 C3.36 7.02 0.72 5.04 -2 3 C-1.34 2.01 -0.68 1.02 0 0 Z " fill="#ECECEC" transform="translate(522,185)"/>
<path d="M0 0 C0.66 0.33 1.32 0.66 2 1 C1.01 2.32 0.02 3.64 -1 5 C-0.67 5.66 -0.34 6.32 0 7 C-2.97 6.505 -2.97 6.505 -6 6 C-5 3 -5 3 -2.5625 1.25 C-1.716875 0.8375 -0.87125 0.425 0 0 Z " fill="#131313" transform="translate(328,176)"/>
<path d="M0 0 C0.33 0 0.66 0 1 0 C1.02698189 1.62490954 1.04638757 3.24994633 1.0625 4.875 C1.07410156 5.77992188 1.08570313 6.68484375 1.09765625 7.6171875 C1 10 1 10 0 12 C-0.66 12 -1.32 12 -2 12 C-1.34 8.04 -0.68 4.08 0 0 Z " fill="#BF2121" transform="translate(349,379)"/>
<path d="M0 0 C0.99 0.33 1.98 0.66 3 1 C2.67 2.32 2.34 3.64 2 5 C1.01 4.67 0.02 4.34 -1 4 C-1.99 4.495 -1.99 4.495 -3 5 C-3.66 4.34 -4.32 3.68 -5 3 C-2.6875 1.4375 -2.6875 1.4375 0 0 Z " fill="#E5E5E5" transform="translate(216,193)"/>
<path d="M0 0 C0.66 0.33 1.32 0.66 2 1 C1.01 2.32 0.02 3.64 -1 5 C-2.32 4.67 -3.64 4.34 -5 4 C-5.33 4.66 -5.66 5.32 -6 6 C-6 5.01 -6 4.02 -6 3 C-4.03533587 1.93224776 -2.03144641 0.93446535 0 0 Z " fill="#F1F1F1" transform="translate(279,178)"/>
<path d="M0 0 C2.25 1.9375 2.25 1.9375 4 4 C3.67 4.66 3.34 5.32 3 6 C0.525 5.01 0.525 5.01 -2 4 C-2 3.34 -2 2.68 -2 2 C-2.66 1.67 -3.32 1.34 -4 1 C-2.25 0.25 -2.25 0.25 0 0 Z " fill="#0D0D0D" transform="translate(414,43)"/>
<path d="M0 0 C0.99 0.33 1.98 0.66 3 1 C2.34 1.66 1.68 2.32 1 3 C0.35232207 5.57061311 0.35232207 5.57061311 0 8 C-0.99 7.01 -1.98 6.02 -3 5 C-1.125 1.125 -1.125 1.125 0 0 Z " fill="#F9E3DD" transform="translate(339,402)"/>
<path d="M0 0 C5.3592233 0.46601942 5.3592233 0.46601942 7.875 2.5625 C8.431875 3.2740625 8.431875 3.2740625 9 4 C7.68 4.33 6.36 4.66 5 5 C4.34 4.01 3.68 3.02 3 2 C0.94074861 1.27617533 0.94074861 1.27617533 -1 1 C-0.67 0.67 -0.34 0.34 0 0 Z " fill="#C22924" transform="translate(355,399)"/>
<path d="M0 0 C-1.75 5.75 -1.75 5.75 -4 8 C-5.03864166 4.88407501 -5.09036928 3.9737344 -4 1 C-2 0 -2 0 0 0 Z " fill="#FAE1D6" transform="translate(341,433)"/>
<path d="M0 0 C-2.93373731 1.95582488 -5.78216298 3.56224304 -9 5 C-9.66 4.67 -10.32 4.34 -11 4 C-7.26280719 0.48264206 -5.13496308 -0.47767098 0 0 Z " fill="#AF231D" transform="translate(356,430)"/>
<path d="M0 0 C1.32 0.33 2.64 0.66 4 1 C4 1.66 4 2.32 4 3 C6.64 3 9.28 3 12 3 C12 3.33 12 3.66 12 4 C8.7 4 5.4 4 2 4 C1.34 2.68 0.68 1.36 0 0 Z " fill="#242424" transform="translate(412,425)"/>
<path d="M0 0 C0.99 0.33 1.98 0.66 3 1 C1.02 3.31 -0.96 5.62 -3 8 C-3 4.42424104 -1.91159393 2.94704065 0 0 Z " fill="#232323" transform="translate(145,194)"/>
<path d="M0 0 C0.66 0 1.32 0 2 0 C1.625 1.9375 1.625 1.9375 1 4 C-1.49092811 5.24546405 -2.41080733 4.7767578 -5 4 C-5 3.34 -5 2.68 -5 2 C-3.35 2 -1.7 2 0 2 C0 1.34 0 0.68 0 0 Z " fill="#EAFCF6" transform="translate(370,394)"/>
<path d="M0 0 C2.375 0.25 2.375 0.25 5 1 C6.3125 3.0625 6.3125 3.0625 7 5 C6.01 5 5.02 5 4 5 C1.8125 2.5 1.8125 2.5 0 0 Z " fill="#A4363A" transform="translate(371,392)"/>
<path d="M0 0 C0.66 0.33 1.32 0.66 2 1 C2.625 3.5625 2.625 3.5625 3 6 C0.5625 5.625 0.5625 5.625 -2 5 C-2.33 4.34 -2.66 3.68 -3 3 C-2.01 2.67 -1.02 2.34 0 2 C0 1.34 0 0.68 0 0 Z " fill="#FAD8D3" transform="translate(378,389)"/>
<path d="M0 0 C-0.33 0.99 -0.66 1.98 -1 3 C-3.0625 3.6875 -3.0625 3.6875 -5 4 C-5.33 2.68 -5.66 1.36 -6 0 C-3 -1 -3 -1 0 0 Z " fill="#EDEDED" transform="translate(338,170)"/>
</svg>
