<svg xmlns="http://www.w3.org/2000/svg" version="1.1" viewBox="-5.0 -10.0 110.0 135.0">
 <path d="m59.641 95-42.016-22.293 11.859-5.4062-21.504-9.9023-0.35938-0.73828 26.863 10.398-12.008 5.4766 50.879 22.465zm-11-86.145c2.1836-1.3047 4.4805-2.5938 6.8984-3.8555-1.1133 6.5977 1.9766 9.9453 1.9766 9.9453s10.477-5.3203 22.902-5.5156c-5.7773 4.0938-8.9648 7.5312-8.9648 7.5312s4.4023-1.8359 10.055-1.9102c-6.1523 4.5-7.625 6.2734-7.625 6.2734s9.9961 10.922 10.43 13.172c0.4375 2.2461 2.9297 6.9336 2.9609 8.2617 0.03125 1.3281-1.7852 7.1641-0.82031 9.8125 0.96875 2.6445 5.6758 9.4102 5.6758 9.4102s0.83984 3.1719-0.56641 4.1055c-1.4062 0.92969-9.3164 1.9336-11.094 2.1055-1.7812 0.17188-7.9609-1.3203-8.9609-4.125-0.99609-2.8086-4.9102-7.0078-7.5-8.6797-2.5938-1.6719-10.973-7.957-1.6602-18.383-7.5039 3.8633-8.3945 13.414-3.8203 20.871 6.8555 11.18 15.312 10.762 18.715 19.422 3.1875 8.1016-1.5195 14.105-1.5195 14.105l-46.566-19.281 11.934-5.4414-32.945-12.594s5.2461-21.715 34.512-41.438c1.1641 1.3594 2.4219 2.5508 2.4219 2.5508l-1.2422-3.3359c1.1484-0.75391 2.3359-1.5078 3.5547-2.2539 0.58594 1.6172 1.6328 4.207 3.4297 7.8945-1.7578-4.2148-2.1562-7.0273-2.1797-8.6484zm30.055 28.449 1.4648 6.4492-3.2422-2.1523 1.3945-3.9219-1.9492-4.4805z" fill-rule="evenodd"/>
</svg>